<svg width="20" height="16" viewBox="0 0 20 16" fill="none" xmlns="http://www.w3.org/2000/svg">
<path d="M0.833374 7.99998C0.833374 7.99998 4.16671 1.33331 10 1.33331C15.8334 1.33331 19.1667 7.99998 19.1667 7.99998C19.1667 7.99998 15.8334 14.6666 10 14.6666C4.16671 14.6666 0.833374 7.99998 0.833374 7.99998Z" stroke="url(#paint0_linear_5539_17756)" stroke-width="1.5" stroke-linecap="round" stroke-linejoin="round"/>
<path d="M10 10.5C11.3808 10.5 12.5 9.38069 12.5 7.99998C12.5 6.61927 11.3808 5.49998 10 5.49998C8.61933 5.49998 7.50004 6.61927 7.50004 7.99998C7.50004 9.38069 8.61933 10.5 10 10.5Z" stroke="url(#paint1_linear_5539_17756)" stroke-width="1.5" stroke-linecap="round" stroke-linejoin="round"/>
<defs>
<linearGradient id="paint0_linear_5539_17756" x1="2.66671" y1="13.3333" x2="12.2158" y2="-0.0444766" gradientUnits="userSpaceOnUse">
<stop stop-color="#0047AB"/>
<stop offset="1" stop-color="#3388FF"/>
</linearGradient>
<linearGradient id="paint1_linear_5539_17756" x1="2.66671" y1="13.3333" x2="12.2158" y2="-0.0444766" gradientUnits="userSpaceOnUse">
<stop stop-color="#0047AB"/>
<stop offset="1" stop-color="#3388FF"/>
</linearGradient>
</defs>
</svg>
