<svg width="24" height="17" viewBox="0 0 24 17" fill="none" xmlns="http://www.w3.org/2000/svg">
<path d="M3.6 1.2C3.6 0.53625 4.13625 0 4.8 0H6C6.66375 0 7.2 0.53625 7.2 1.2V7.2V9.6V15.6C7.2 16.2637 6.66375 16.8 6 16.8H4.8C4.13625 16.8 3.6 16.2637 3.6 15.6V13.2H2.4C1.73625 13.2 1.2 12.6637 1.2 12V9.6C0.53625 9.6 0 9.06375 0 8.4C0 7.73625 0.53625 7.2 1.2 7.2V4.8C1.2 4.13625 1.73625 3.6 2.4 3.6H3.6V1.2ZM20.4 1.2V3.6H21.6C22.2638 3.6 22.8 4.13625 22.8 4.8V7.2C23.4638 7.2 24 7.73625 24 8.4C24 9.06375 23.4638 9.6 22.8 9.6V12C22.8 12.6637 22.2638 13.2 21.6 13.2H20.4V15.6C20.4 16.2637 19.8638 16.8 19.2 16.8H18C17.3363 16.8 16.8 16.2637 16.8 15.6V9.6V7.2V1.2C16.8 0.53625 17.3363 0 18 0H19.2C19.8638 0 20.4 0.53625 20.4 1.2ZM15.6 7.2V9.6H8.4V7.2H15.6Z" fill="#0F0F0F"/>
<path d="M3.6 1.2C3.6 0.53625 4.13625 0 4.8 0H6C6.66375 0 7.2 0.53625 7.2 1.2V7.2V9.6V15.6C7.2 16.2637 6.66375 16.8 6 16.8H4.8C4.13625 16.8 3.6 16.2637 3.6 15.6V13.2H2.4C1.73625 13.2 1.2 12.6637 1.2 12V9.6C0.53625 9.6 0 9.06375 0 8.4C0 7.73625 0.53625 7.2 1.2 7.2V4.8C1.2 4.13625 1.73625 3.6 2.4 3.6H3.6V1.2ZM20.4 1.2V3.6H21.6C22.2638 3.6 22.8 4.13625 22.8 4.8V7.2C23.4638 7.2 24 7.73625 24 8.4C24 9.06375 23.4638 9.6 22.8 9.6V12C22.8 12.6637 22.2638 13.2 21.6 13.2H20.4V15.6C20.4 16.2637 19.8638 16.8 19.2 16.8H18C17.3363 16.8 16.8 16.2637 16.8 15.6V9.6V7.2V1.2C16.8 0.53625 17.3363 0 18 0H19.2C19.8638 0 20.4 0.53625 20.4 1.2ZM15.6 7.2V9.6H8.4V7.2H15.6Z" fill="white"/>
</svg>
